<svg xmlns="http://www.w3.org/2000/svg" width="96" height="86" viewBox="0 0 96 86" fill="none"><path fill-rule="evenodd" clip-rule="evenodd" d="M42.2829 15.5541L26.1857 22.107C26.166 22.115 26.144 22.1155 26.1239 22.1083L3.4682 14.0273C3.40464 14.0049 3.29271 13.9672 3.15149 13.9196L3.15083 13.9194L3.15077 13.9194C2.67069 13.7578 1.85294 13.4824 1.44517 13.3048C0.426663 12.8612 0.00014446 12.1488 0.00014446 11.4486L0.000147147 2.90065L0.00014446 1.60013C0.000134212 0.844355 1.57473 -0.446574 3.1792 0.155104C5.01935 0.845158 29.4668 10.3646 42.2865 15.3949C42.3594 15.4235 42.3554 15.5246 42.2829 15.5541ZM42.2775 70.3025L26.6183 64.1812C26.599 64.1737 26.5776 64.1733 26.5581 64.1801L3.46805 72.284C3.40506 72.3062 3.29455 72.3434 3.1551 72.3904L3.15141 72.3916L3.15065 72.3919C2.67059 72.5535 1.8528 72.8289 1.44502 73.0065C0.426521 73.4501 2.68731e-06 74.1625 2.68731e-06 74.8627V83.0993L0 84.3998C-1.02486e-05 85.1556 1.57458 86.4465 3.17906 85.8448C4.2199 85.4545 12.4937 82.1936 21.805 78.5237C28.9538 75.7062 36.7141 72.6477 42.2823 70.4621C42.3557 70.4333 42.3509 70.3312 42.2775 70.3025ZM90.4585 34.1131L70.1146 26.1776C70.0947 26.1698 70.0726 26.1697 70.0526 26.1772L54.557 32.0058C54.4812 32.0344 54.4768 32.1402 54.5534 32.167C57.7453 33.2808 63.4743 35.3294 68.2542 37.0386C71.7592 38.2919 74.754 39.3627 75.8638 39.7487C76.2973 39.8995 77.4533 40.3267 78.3203 40.6691C80.0151 41.3382 80.3433 41.9163 80.3433 42.7833C80.3433 43.7948 79.9098 44.6618 78.0313 45.2398C77.8949 45.2818 77.0736 45.5876 76.3395 45.8609C75.9037 46.0231 75.4986 46.1739 75.2858 46.2513L53.5434 54.2617C53.4677 54.2896 53.4678 54.3968 53.5437 54.4245L68.7523 59.9678C68.7722 59.975 68.7931 59.9751 68.8127 59.9674C75.5689 57.3131 90.026 51.5975 90.7475 51.3089C91.0064 51.2053 91.3039 51.0992 91.6325 50.982L91.6326 50.982C92.4042 50.7068 93.3466 50.3706 94.3601 49.8639C95.0212 49.5333 95.6606 48.8524 95.6606 48.1299V37.5812C95.6606 36.5802 95.0826 35.8472 93.0595 35.1247C91.9036 34.6912 90.7931 34.247 90.4586 34.1132L90.4585 34.1131ZM93.9265 13.4439L18.2074 40.3213C18.0357 40.39 17.8641 40.4553 17.6949 40.5197C16.4395 40.9977 15.3173 41.4249 15.3173 42.7778C15.3173 44.3397 16.4335 44.7855 17.1578 45.0747C17.1706 45.0798 17.1833 45.0849 17.1959 45.0899L93.9265 73.2678C93.9754 73.2874 94.0256 73.3069 94.0768 73.3269C94.7813 73.6012 95.6605 73.9436 95.6605 75.2909V83.672C95.6605 84.3945 95.4887 85.5245 94.071 85.8395C93.0883 86.0579 92.6006 85.8637 91.8598 85.5687C91.6202 85.4734 91.3542 85.3674 91.0365 85.2615C90.6526 85.1336 65.5541 75.2411 39.9366 65.1441C26.1418 59.707 12.1964 54.2105 1.87862 50.1475C1.25245 49.9066 9.35747e-05 49.2804 9.35747e-05 48.1244V37.7203C9.35747e-05 36.9978 0.144596 36.1019 1.87862 35.4082C2.93829 34.9844 25.4935 26.2106 49.6259 16.8232C64.9835 10.8492 80.9799 4.62673 92.4815 0.149695C93.6759 -0.315251 95.6605 0.438696 95.6605 1.73922V11.4209C95.6605 11.9989 95.3715 12.8659 93.9265 13.4439Z" fill="url(#paint0_linear_215_3768)"></path><defs><linearGradient id="paint0_linear_215_3768" x1="0" y1="0" x2="95.6605" y2="86" gradientUnits="userSpaceOnUse"><stop stop-color="#2744A4"></stop><stop offset="0.333333" stop-color="#280878"></stop><stop offset="0.645833" stop-color="#530D76"></stop><stop offset="0.958333" stop-color="#911DCD"></stop></linearGradient></defs></svg>